HIERARCHY
ROOT joint_Root
{
	OFFSET 0.0 0.0 0.0
	CHANNELS 6 Xposition Yposition Zposition Zrotation Xrotation Yrotation 
	JOINT Hips
	{
		OFFSET 4.5925 91.4895 -427.239
		CHANNELS 6 Xposition Yposition Zposition Zrotation Xrotation Yrotation 
		JOINT Spine
		{
			OFFSET 15.7357 0.0 0.0
			CHANNELS 6 Xposition Yposition Zposition Zrotation Xrotation Yrotation 
			JOINT Chest
			{
				OFFSET 8.98455 -0.406207 0.0
				CHANNELS 6 Xposition Yposition Zposition Zrotation Xrotation Yrotation 
				JOINT Neck
				{
					OFFSET 16.3773 0.0 0.0
					CHANNELS 6 Xposition Yposition Zposition Zrotation Xrotation Yrotation 
					JOINT Head
					{
						OFFSET 6.45672 0.0 0.0
						CHANNELS 6 Xposition Yposition Zposition Zrotation Xrotation Yrotation 
						End Site
						{
							OFFSET 0.0 0.0 0.0
						}
					}
				}
				JOINT Shoulder_L
				{
					OFFSET 12.9942 -0.242716 4.98039
					CHANNELS 6 Xposition Yposition Zposition Zrotation Xrotation Yrotation 
					JOINT UpperArm_L
					{
						OFFSET 5.34809 0.0 0.0
						CHANNELS 6 Xposition Yposition Zposition Zrotation Xrotation Yrotation 
						JOINT LowerArm_L
						{
							OFFSET 24.3286 1.87007e-05 0.0
							CHANNELS 6 Xposition Yposition Zposition Zrotation Xrotation Yrotation 
							JOINT Hand_L
							{
								OFFSET 22.2916 0.0 0.0
								CHANNELS 6 Xposition Yposition Zposition Zrotation Xrotation Yrotation 
								End Site
								{
									OFFSET 0.0 0.0 0.0
								}
							}
						}
					}
				}
				JOINT Shoulder_R
				{
					OFFSET 12.9945 -0.242716 -4.98039
					CHANNELS 6 Xposition Yposition Zposition Zrotation Xrotation Yrotation 
					JOINT UpperArm_R
					{
						OFFSET -5.34813 0.0 0.0
						CHANNELS 6 Xposition Yposition Zposition Zrotation Xrotation Yrotation 
						JOINT LowerArm_R
						{
							OFFSET -24.3289 0.000322201 0.0
							CHANNELS 6 Xposition Yposition Zposition Zrotation Xrotation Yrotation 
							JOINT Hand_R
							{
								OFFSET -22.2915 -0.000108084 0.0
								CHANNELS 6 Xposition Yposition Zposition Zrotation Xrotation Yrotation 
								End Site
								{
									OFFSET 0.0 0.0 0.0
								}
							}
						}
					}
				}
			}
		}
		JOINT UpperLeg_L
		{
			OFFSET -2.19248 -6.46944 0.0
			CHANNELS 6 Xposition Yposition Zposition Zrotation Xrotation Yrotation 
			JOINT LowerLeg_L
			{
				OFFSET 39.0811 0.0 -1.23785e-05
				CHANNELS 6 Xposition Yposition Zposition Zrotation Xrotation Yrotation 
				JOINT Foot_L
				{
					OFFSET 40.9854 0.0 -1.26872e-05
					CHANNELS 6 Xposition Yposition Zposition Zrotation Xrotation Yrotation 
					JOINT Toes_L
					{
						OFFSET 11.7543 0.0 0.0
						CHANNELS 6 Xposition Yposition Zposition Zrotation Xrotation Yrotation 
						End Site
						{
							OFFSET 0.0 0.0 0.0
						}
					}
				}
			}
		}
		JOINT UpperLeg_R
		{
			OFFSET -2.19251 6.46944 0.0
			CHANNELS 6 Xposition Yposition Zposition Zrotation Xrotation Yrotation 
			JOINT LowerLeg_R
			{
				OFFSET -39.0811 -0.00228153 -0.0401928
				CHANNELS 6 Xposition Yposition Zposition Zrotation Xrotation Yrotation 
				JOINT Foot_R
				{
					OFFSET -40.9854 0.0 0.0
					CHANNELS 6 Xposition Yposition Zposition Zrotation Xrotation Yrotation 
					JOINT Toes_R
					{
						OFFSET -11.7543 0.0 0.0
						CHANNELS 6 Xposition Yposition Zposition Zrotation Xrotation Yrotation 
						End Site
						{
							OFFSET 0.0 0.0 0.0
						}
					}
				}
			}
		}
	}
}
MOTION
Frames:	4
Frame Time:	0.0333333
0.000000 0.000000 0.000000 0.000000 0.000000 -0.000000 -9.898820 90.482300 -501.649000 91.553500 -4.793500 4.463330 15.735700 0.000005 -0.000001 94.403100 84.185700 -94.109100 8.984550 -0.406207 -0.000000 3.826340 0.881431 0.557973 16.377300 -0.000001 -0.000001 -0.138824 -2.123090 2.127160 6.456720 -0.000001 -0.000000 -9.457650 -2.476440 4.586240 12.994200 -0.242716 4.980390 -90.173000 0.580884 -73.412400 5.348090 -0.000007 -0.000001 -71.627100 37.215000 -5.584030 24.328600 0.000019 0.000005 8.742570 20.186500 -24.020700 22.291600 -0.000001 0.000005 10.134200 5.285320 0.481244 12.994500 -0.242716 -4.980390 88.995100 7.993740 -82.811200 -5.348130 -0.000001 -0.000004 -62.836800 29.908300 -16.102200 -24.328900 0.000322 -0.000009 0.588712 1.563650 -20.667600 -22.291500 -0.000108 -0.000004 16.370000 5.377330 -2.214240 -2.192480 -6.469440 -0.000000 -177.584000 -11.748600 -17.624300 39.081100 -0.000007 -0.000012 0.131603 -0.056497 66.764100 40.985400 -0.000006 -0.000013 3.807350 -7.611420 -60.110800 11.754300 -0.000000 0.000003 -0.004273 -0.054258 -18.784000 -2.192510 6.469440 -0.000001 176.603000 12.643600 176.618000 -39.081100 -0.002282 -0.040193 0.026852 -0.035947 33.237400 -40.985400 0.000008 0.000006 7.888820 7.173880 -74.727700 -11.754300 -0.000006 -0.000006 -0.002764 -0.037898 -18.114300
0.000000 0.000000 0.000000 0.000000 0.000000 -0.000000 -9.751180 90.820900 -499.587000 91.919400 -5.744870 3.488110 15.735700 0.000005 -0.000001 99.120200 84.390500 -99.134500 8.984550 -0.406207 -0.000000 3.312720 1.776820 -0.080043 16.377300 -0.000001 -0.000001 -0.497568 -2.086700 2.099980 6.456720 -0.000001 -0.000000 -9.519780 -2.684800 4.012380 12.994200 -0.242716 4.980390 -90.158900 0.521566 -73.053500 5.348090 -0.000007 -0.000001 -75.504700 32.403600 -0.827253 24.328600 0.000019 0.000005 6.761390 24.015900 -16.242900 22.291600 -0.000001 0.000005 9.047670 5.241030 1.668970 12.994500 -0.242716 -4.980390 89.145100 7.102900 -83.119300 -5.348130 -0.000001 -0.000004 -61.805200 30.857900 -18.529100 -24.328900 0.000322 -0.000009 0.333318 0.720671 -24.902700 -22.291500 -0.000108 -0.000004 16.398300 5.392990 -2.711280 -2.192480 -6.469440 -0.000000 -178.263000 -10.803400 -20.821600 39.081100 -0.000007 -0.000012 0.110164 -0.059626 61.573600 40.985400 -0.000006 -0.000013 3.769470 -5.227470 -61.744500 11.754300 -0.000000 0.000003 -0.005441 -0.065684 -19.249600 -2.192510 6.469440 -0.000001 175.548000 13.446500 178.491000 -39.081100 -0.002282 -0.040193 0.015562 -0.021019 30.254400 -40.985400 0.000008 0.000006 7.878350 9.106290 -74.516400 -11.754300 -0.000006 -0.000006 -0.003482 -0.045935 -18.441400
0.000000 0.000000 0.000000 0.000000 0.000000 -0.000000 -9.565590 90.860700 -497.545000 91.956900 -6.480620 2.490350 15.735700 0.000005 -0.000001 102.859000 84.510600 -103.111000 8.984550 -0.406207 -0.000000 2.945170 2.451600 -0.566141 16.377300 -0.000001 -0.000001 -0.905406 -1.987090 2.041100 6.456720 -0.000001 -0.000000 -9.928600 -2.941990 3.547330 12.994200 -0.242716 4.980390 -90.089100 0.283200 -72.536400 5.348090 -0.000007 -0.000001 -77.624800 26.259600 2.447210 24.328600 0.000019 0.000005 3.960290 27.089900 -8.645200 22.291600 -0.000001 0.000005 9.179310 5.149290 3.959350 12.994500 -0.242716 -4.980390 89.245300 6.626840 -83.488100 -5.348130 -0.000001 -0.000004 -60.022700 31.439900 -20.891800 -24.328900 0.000322 -0.000009 -0.168429 -0.297025 -29.371900 -22.291500 -0.000108 -0.000004 16.637900 5.409710 -3.255600 -2.192480 -6.469440 -0.000000 -178.254000 -9.917980 -23.253100 39.081100 -0.000007 -0.000012 0.086054 -0.061713 54.352300 40.985400 -0.000006 -0.000013 2.279960 -2.976590 -62.903700 11.754300 -0.000000 0.000003 -0.004151 -0.053005 -18.733000 -2.192510 6.469440 -0.000001 174.713000 14.476500 -179.906000 -39.081100 -0.002282 -0.040193 0.001791 0.002858 27.934900 -40.985400 0.000008 0.000006 7.695330 11.096600 -74.756600 -11.754300 -0.000006 -0.000006 -0.002912 -0.039599 -18.183500
0.000000 0.000000 0.000000 0.000000 0.000000 -0.000000 -9.314090 90.613100 -495.431000 91.687500 -6.727090 1.774690 15.735700 0.000005 -0.000001 105.205000 84.505100 -105.563000 8.984550 -0.406207 -0.000000 2.851570 2.894940 -0.788489 16.377300 -0.000001 -0.000001 -1.250100 -2.058760 1.818430 6.456720 -0.000001 -0.000000 -10.575800 -3.315440 3.072230 12.994200 -0.242716 4.980390 -89.962000 -0.118860 -72.257600 5.348090 -0.000007 -0.000001 -78.378800 20.411200 4.965590 24.328600 0.000019 0.000005 1.147680 29.021000 -2.365010 22.291600 -0.000001 0.000005 9.675220 5.046180 6.320380 12.994500 -0.242716 -4.980390 89.289100 6.407610 -83.655600 -5.348130 -0.000001 -0.000004 -57.724600 31.675800 -22.972300 -24.328900 0.000322 -0.000009 -0.592584 -0.881439 -33.862100 -22.291500 -0.000108 -0.000004 17.108800 5.425650 -3.790160 -2.192480 -6.469440 -0.000000 -177.827000 -9.640850 -24.835300 39.081100 -0.000007 -0.000012 0.059292 -0.057836 45.710400 40.985400 -0.000006 -0.000013 0.674414 -1.195880 -62.249600 11.754300 -0.000000 0.000003 -0.004118 -0.052667 -18.719200 -2.192510 6.469440 -0.000001 173.658000 16.800600 -177.867000 -39.081100 -0.002282 -0.040193 -0.018073 0.043873 25.984800 -40.985400 0.000008 0.000006 7.717710 13.860100 -75.661200 -11.754300 -0.000006 -0.000006 -0.002855 -0.038948 -18.157000
